<svg width="32" height="32" viewBox="0 0 32 32" fill="none" xmlns="http://www.w3.org/2000/svg">
<path d="M16 1C7.71658 1 1 7.71658 1 16C1 24.2834 7.71658 31 16 31C24.2834 31 31 24.2834 31 16C31 7.71658 24.2834 1 16 1Z" stroke="#828282" stroke-width="2" stroke-miterlimit="10"/>
<path d="M13.7173 13.7174H16.326V23.1739" stroke="#828282" stroke-width="2" stroke-linecap="round" stroke-linejoin="round"/>
<path d="M12.7393 23.5H19.9132" stroke="#828282" stroke-width="2" stroke-miterlimit="10" stroke-linecap="round"/>
<path d="M15.9999 6.38049C15.5807 6.38049 15.1709 6.5048 14.8224 6.7377C14.4738 6.97061 14.2021 7.30164 14.0417 7.68894C13.8813 8.07624 13.8393 8.50241 13.9211 8.91356C14.0029 9.32472 14.2048 9.70239 14.5012 9.99882C14.7976 10.2952 15.1753 10.4971 15.5864 10.5789C15.9976 10.6607 16.4238 10.6187 16.8111 10.4583C17.1984 10.2979 17.5294 10.0262 17.7623 9.67763C17.9952 9.32906 18.1195 8.91927 18.1195 8.50006C18.1195 7.93791 17.8962 7.39879 17.4987 7.0013C17.1012 6.6038 16.5621 6.38049 15.9999 6.38049Z" fill="#828282"/>
</svg>
