<svg width="32" height="32" viewBox="0 0 32 32" fill="none" xmlns="http://www.w3.org/2000/svg">
<path d="M24.276 5.7804L2.32985 27.7806L1 31L4.21939 29.6701L26.2196 7.72396L24.276 5.7804ZM28.6672 1.39003L27.7164 2.34004L29.66 4.28361L30.6108 3.33279C30.8603 3.08312 31.0004 2.74461 31.0004 2.39165C31.0004 2.0387 30.8603 1.70018 30.6108 1.45052L30.5503 1.39003C30.4267 1.26638 30.2799 1.16829 30.1183 1.10137C29.9568 1.03444 29.7836 1 29.6087 1C29.4339 1 29.2607 1.03444 29.0992 1.10137C28.9376 1.16829 28.7908 1.26638 28.6672 1.39003Z" stroke="#828282" stroke-width="2" stroke-linecap="round" stroke-linejoin="round"/>
</svg>
