<svg width="37" height="32" viewBox="0 0 37 32" fill="none" xmlns="http://www.w3.org/2000/svg">
<path d="M30.3533 13.5C30.0877 13.5 29.1979 13.5078 28.9471 13.5234L23.8768 13.6562C23.8504 13.6579 23.8241 13.6522 23.8008 13.6397C23.7775 13.6273 23.7581 13.6087 23.7447 13.5859L13.6213 1.27812C13.5599 1.19684 13.4816 1.12987 13.3917 1.08185C13.3019 1.03383 13.2027 1.0059 13.101 1H11.0002L16.7033 13.5781C16.7169 13.6069 16.7228 13.6388 16.7204 13.6705C16.718 13.7023 16.7073 13.7328 16.6895 13.7592C16.6717 13.7856 16.6473 13.8069 16.6188 13.8211C16.5903 13.8352 16.5586 13.8417 16.5268 13.8398L7.01973 13.9805C6.9208 13.9835 6.82255 13.9631 6.73297 13.921C6.64338 13.8789 6.56497 13.8163 6.50411 13.7383L3.61348 10.2227C3.37911 9.91797 2.94004 9.75391 2.55801 9.75391H1.08458C0.983795 9.75391 0.998638 9.84844 1.02598 9.94375L2.57598 15.5234C2.69315 15.8223 2.69315 16.1543 2.57598 16.4531L1.02442 22.0156C0.978326 22.168 0.983795 22.25 1.1627 22.25H2.5627C3.19864 22.25 3.28536 22.1672 3.61036 21.7578L6.55567 18.1875C6.61707 18.11 6.69558 18.0479 6.78504 18.0059C6.8745 17.9638 6.97248 17.9431 7.07129 17.9453L16.4994 18.1562C16.5337 18.157 16.5674 18.1662 16.5974 18.1829C16.6273 18.1996 16.6528 18.2234 16.6715 18.2522C16.6902 18.281 16.7016 18.3139 16.7047 18.3481C16.7078 18.3823 16.7025 18.4168 16.6893 18.4484L11.0002 31H13.0814C13.1829 30.9941 13.282 30.9662 13.3717 30.9183C13.4613 30.8705 13.5396 30.8037 13.601 30.7227L23.7455 18.4219C23.776 18.375 23.9018 18.3516 23.9557 18.3516L28.9479 18.4844C29.2057 18.5 30.0877 18.5078 30.3541 18.5078C33.8127 18.5078 36.0002 17.557 36.0002 16C36.0002 14.443 33.8221 13.5 30.3533 13.5Z" stroke="#828282" stroke-width="2" stroke-linecap="round" stroke-linejoin="round"/>
</svg>
