<svg width="32" height="30" viewBox="0 0 32 30" fill="none" xmlns="http://www.w3.org/2000/svg">
<path d="M15.8555 16.3039L21.8551 20.8037C21.9601 20.8824 22.0797 20.9398 22.2069 20.9724C22.3341 21.0049 22.4665 21.0122 22.5965 20.9936C22.7265 20.975 22.8515 20.931 22.9645 20.8641C23.0775 20.7972 23.1762 20.7087 23.255 20.6037C23.3338 20.4986 23.3911 20.3791 23.4237 20.2519C23.4563 20.1247 23.4635 19.9923 23.4449 19.8623C23.4264 19.7323 23.3824 19.6072 23.3155 19.4942C23.2486 19.3813 23.1601 19.2825 23.055 19.2038L17.5004 14.999V6.49957C17.5004 6.23437 17.395 5.98003 17.2075 5.79251C17.02 5.60498 16.7656 5.49963 16.5004 5.49963C16.2352 5.49963 15.9809 5.60498 15.7934 5.79251C15.6058 5.98003 15.5005 6.23437 15.5005 6.49957V15.499C15.5005 15.831 15.6395 16.13 15.8555 16.3039Z" fill="#828282"/>
<path d="M17.0002 0C9.68113 0 3.43103 5.28266 2.21111 12.4992L1.83114 11.9342C1.68262 11.7141 1.45275 11.562 1.1921 11.5114C0.931437 11.4608 0.661341 11.5157 0.441225 11.6643C0.22111 11.8128 0.0690053 12.0426 0.0183737 12.3033C-0.0322579 12.564 0.0227306 12.8341 0.171242 13.0542L2.17111 16.054C2.25233 16.1775 2.35992 16.2815 2.48614 16.3584C2.61236 16.4353 2.75407 16.4833 2.90107 16.4989H3.00106C3.13218 16.4985 3.26193 16.4722 3.38289 16.4216C3.50385 16.371 3.61365 16.297 3.70602 16.204L6.20586 13.7041C6.38436 13.5147 6.48203 13.2631 6.47815 13.0028C6.47427 12.7426 6.36916 12.494 6.18509 12.31C6.00103 12.1259 5.75251 12.0208 5.49223 12.0169C5.23196 12.013 4.98041 12.1107 4.79095 12.2892L4.17099 12.9142C5.32241 5.82763 12.0005 1.01693 19.0865 2.16836C26.1726 3.31979 30.9843 9.99736 29.8328 17.0839C28.8104 23.3765 23.3753 27.9992 17.0002 27.9982C15.019 28.0341 13.0585 27.591 11.2854 26.7066C9.51225 25.8222 7.97893 24.5227 6.81582 22.9185C6.73966 22.8115 6.64316 22.7205 6.53184 22.6508C6.42052 22.5811 6.29656 22.534 6.16703 22.5121C6.0375 22.4903 5.90494 22.4942 5.77692 22.5236C5.6489 22.5531 5.52793 22.6074 5.42091 22.6835C5.31389 22.7597 5.22291 22.8562 5.15319 22.9675C5.08346 23.0788 5.03634 23.2028 5.01452 23.3323C4.9927 23.4619 4.9966 23.5944 5.02601 23.7224C5.05542 23.8505 5.10976 23.9714 5.18592 24.0785C6.53286 25.9437 8.31041 27.4559 10.3674 28.4866C12.4243 29.5172 14.6998 30.0358 17.0002 29.9981C25.2841 29.9981 31.9992 23.283 31.9992 14.999C31.9992 6.71507 25.2841 0 17.0002 0Z" fill="#828282"/>
</svg>
