<svg width="27" height="7" viewBox="0 0 27 7" fill="none" xmlns="http://www.w3.org/2000/svg">
<path d="M13.4993 5.16667C14.6499 5.16667 15.5827 4.23393 15.5827 3.08333C15.5827 1.93274 14.6499 1 13.4993 1C12.3488 1 11.416 1.93274 11.416 3.08333C11.416 4.23393 12.3488 5.16667 13.4993 5.16667Z" stroke="#828282" stroke-width="2" stroke-miterlimit="10"/>
<path d="M23.9173 5.16667C25.0679 5.16667 26.0007 4.23393 26.0007 3.08333C26.0007 1.93274 25.0679 1 23.9173 1C22.7667 1 21.834 1.93274 21.834 3.08333C21.834 4.23393 22.7667 5.16667 23.9173 5.16667Z" stroke="#828282" stroke-width="2" stroke-miterlimit="10"/>
<path d="M3.08333 5.16667C4.23393 5.16667 5.16667 4.23393 5.16667 3.08333C5.16667 1.93274 4.23393 1 3.08333 1C1.93274 1 1 1.93274 1 3.08333C1 4.23393 1.93274 5.16667 3.08333 5.16667Z" stroke="#828282" stroke-width="2" stroke-miterlimit="10"/>
</svg>
